<svg xmlns="http://www.w3.org/2000/svg" data-v-423bf9ae="" class="iconAboveSlogan" viewBox="-2.06 0.11 104.12 90"><!----><!----><!----><g data-v-423bf9ae="" id="2e96065a-a294-40d0-b2a6-7504cbcd69c7" fill="white" transform="matrix(Infinity,0,0,Infinity,0,0)"><path d=""></path></g><!----><g data-v-423bf9ae="" id="cc179f18-4797-45bd-b519-d34317012dc5" transform="matrix(1.1568771863412453,0,0,1.1568771863412453,-7.843772169386703,-12.742278172737464)" stroke="none" fill="white"><path d="M94.97 24.478c-.215-.903-1.525-1.378-2.983-1.082 0 0-18.15 3.838-18.583 4.174 0 0-17.558.026-17.756.065-3.733.677-8.791.514-11.795-.01 0 0-16.695-3.186-16.761-3.194-.489-.408-19.221-2.542-19.221-2.542-1.48-.15-2.737.452-2.862 1.372-.121.894.871 1.788 2.287 2.063 0 0 18.269 3.851 18.705 3.995l14.535 4.819c-2.58 7.137-4.785 15.331-4.427 22.006l-19.493 1.065c-2.614.143-3.924 2.267-3.68 4.554.608 5.693-2.213 22.795-2.213 22.795-.16 1.646.993 3.105 2.576 3.258 1.534.149 2.918-.655 3.139-2.243L19.212 66h19.402c.425 0 11.052.107 11.56.372L70.85 77.06c.222.116 17.119 11.3 17.119 11.3.874.573 1.942.692 2.85.354 2.115-.786 2.319-3.609.367-5.061 0 0-16.046-12.471-16.672-12.887 0 0-18.947-12.469-19.355-12.528-3.817-5.728-2.588-12.607 1.012-23.422.255.032 17.717-2.224 17.717-2.224.645-.085 19.009-5.836 19.009-5.836 1.383-.413 2.281-1.401 2.073-2.278z"></path><circle cx="47.901" cy="17.797" r="6.691"></circle></g><!----><g data-v-423bf9ae="" id="2c34c859-eed9-4165-88b2-d82b989e7850" fill="black" transform="matrix(0,0,0,0,0,0)"><path d=""></path></g></svg>