<svg xmlns="http://www.w3.org/2000/svg" data-v-423bf9ae="" class="iconAbove" viewBox="-5.56 0.44 111.11 111.11"><!----><!----><!----><g data-v-423bf9ae="" id="14165f71-d015-4dab-b618-98a66c1d5fb8" fill="#2d5151" transform="matrix(Infinity,0,0,Infinity,0,0)"><path d=""></path></g><!----><g data-v-423bf9ae="" id="9138a6ad-534e-46b9-b5cd-8ab3ab23432a" transform="matrix(1.1111111958821616,0,0,1.1111111958821616,-5.555559794108078,0.4444359673390821)" stroke="none" fill="#2d5151"><path d="M79.986 37.581c9.558-11.723 3.705-17.637 5.369-22.935-5.297 1.662-11.213-4.19-22.938 5.37C60.895 4.967 52.57 4.924 50.001 0c-2.57 4.924-10.892 4.966-12.419 20.016-11.723-9.561-17.639-3.708-22.938-5.372 1.663 5.299-4.188 11.213 5.37 22.937C4.968 39.11 4.92 47.429 0 50c4.922 2.57 4.968 10.895 20.017 12.422-9.561 11.721-3.708 17.639-5.373 22.934 5.299-1.66 11.215 4.192 22.938-5.367 1.527 15.044 9.849 15.09 12.419 20.011 2.569-4.921 10.894-4.967 12.418-20.014 11.724 9.562 17.642 3.705 22.937 5.369-1.662-5.297 4.188-11.213-5.371-22.935C95.033 60.895 95.079 52.57 100 50c-4.921-2.571-4.967-10.89-20.014-12.419zm-.24 7.142l-.01.111s-.926-.059-2.291.065c-.684.065-1.475.042-2.319.186l-2.644.392c-.447.072-.896.144-1.334.212-.432.118-.858.229-1.268.34-.833.17-1.613.304-2.297.373-1.361.14-2.322.114-2.322.114l-.033-.108s.83-.421 2.149-.879c.66-.229 1.444-.444 2.29-.644.43-.079.869-.157 1.316-.235l1.39-.062c.925-.052 1.847-.101 2.712-.15.862-.075 1.684.052 2.372.069 1.387.046 2.289.216 2.289.216zM63.54 42.361s.66-.696 1.726-1.562a20.994 20.994 0 0 1 1.885-1.359c.369-.215.748-.435 1.138-.66.358-.262.726-.526 1.095-.791.729-.542 1.461-1.084 2.145-1.591.701-.497 1.24-1.075 1.773-1.51 1.053-.879 1.662-1.575 1.662-1.575l.085.072s-.516.758-1.463 1.771c-.476.5-.964 1.169-1.628 1.725l-2.025 1.813c-.343.313-.687.627-1.021.934l-1.098.768c-.742.458-1.447.859-2.078 1.163-1.256.611-2.142.898-2.142.898l-.054-.096zm2.192 16.875c.631.301 1.336.705 2.078 1.162.354.25.722.504 1.098.766.336.311.68.624 1.021.938.689.617 1.379 1.231 2.025 1.811.664.556 1.152 1.229 1.628 1.727.946 1.012 1.463 1.771 1.463 1.771l-.085.071s-.609-.695-1.662-1.574c-.533-.436-1.072-1.014-1.773-1.506l-2.145-1.596c-.369-.265-.734-.529-1.095-.791-.39-.226-.769-.443-1.138-.656a22.348 22.348 0 0 1-1.885-1.361c-1.064-.863-1.726-1.563-1.726-1.563l.052-.099c.004-.001.891.29 2.144.9zm11.351-36.008l.078.079s-3.847 4.192-7.761 8.312c-.967 1.042-1.924 2.091-2.854 3.048a54.35 54.35 0 0 1-2.67 2.477c-1.617 1.395-2.786 2.235-2.786 2.235l-.078-.079s.84-1.17 2.234-2.787a53.874 53.874 0 0 1 2.479-2.669c.955-.928 2.004-1.889 3.045-2.856 4.121-3.915 8.313-7.76 8.313-7.76zM58.854 34.68c.305-.627.707-1.336 1.164-2.075.248-.356.502-.726.765-1.098l.938-1.026 1.813-2.025c.553-.664 1.226-1.15 1.722-1.627 1.017-.944 1.771-1.463 1.771-1.463l.072.084s-.693.614-1.574 1.667c-.436.529-1.01 1.072-1.508 1.771-.51.686-1.052 1.415-1.591 2.146-.268.366-.532.732-.794 1.095l-.656 1.137a23.915 23.915 0 0 1-1.358 1.885 19.842 19.842 0 0 1-1.563 1.725l-.098-.055c-.001-.001.286-.887.897-2.141zm-4.84-1.853c.064-.683.198-1.464.368-2.294.111-.412.226-.836.341-1.271.07-.438.144-.885.215-1.333.131-.898.266-1.797.39-2.64.146-.846.12-1.637.188-2.32.121-1.369.063-2.291.063-2.291l.111-.01s.17.902.219 2.287c.017.686.144 1.509.064 2.369-.046.866-.098 1.791-.149 2.712-.021.467-.039.931-.062 1.389-.08.448-.158.889-.232 1.317a24.31 24.31 0 0 1-.646 2.29c-.453 1.32-.876 2.15-.876 2.15l-.108-.033c-.002.001-.028-.956.114-2.322zm-4.461-9.416c.144-5.682.391-11.362.391-11.362h.111s.247 5.68.391 11.362c.051 1.421.119 2.843.136 4.172a55.861 55.861 0 0 1-.136 3.64c-.157 2.13-.391 3.552-.391 3.552h-.111s-.234-1.421-.391-3.552a54.53 54.53 0 0 1-.135-3.64c.018-1.33.085-2.751.135-4.172zm-5.427-.454c.049-1.385.217-2.287.217-2.287l.111.01s-.059.921.064 2.291c.068.683.042 1.474.186 2.32.126.843.26 1.741.392 2.64l.216 1.336.338 1.268c.172.83.304 1.611.371 2.294.141 1.366.116 2.323.116 2.323l-.107.033s-.423-.83-.877-2.15a24.31 24.31 0 0 1-.646-2.29l-.235-1.317-.063-1.389-.15-2.712c-.077-.861.051-1.684.067-2.37zm-11.12 2.408s.757.519 1.77 1.463c.5.477 1.169.967 1.725 1.63.578.644 1.196 1.333 1.812 2.022l.938 1.026.766 1.098a24.48 24.48 0 0 1 1.163 2.075c.611 1.254.898 2.14.898 2.14l-.098.055s-.696-.66-1.562-1.725a22.679 22.679 0 0 1-1.361-1.885c-.212-.369-.433-.751-.657-1.137-.261-.359-.528-.729-.792-1.095l-1.591-2.146c-.497-.699-1.074-1.242-1.508-1.771-.881-1.052-1.575-1.667-1.575-1.667l.072-.083zm-10.08-2.111s4.192 3.842 8.311 7.756c1.041.971 2.091 1.928 3.047 2.856a56.714 56.714 0 0 1 2.478 2.669 44.255 44.255 0 0 1 2.233 2.787l-.079.079s-1.169-.84-2.787-2.231a56.914 56.914 0 0 1-2.669-2.48c-.928-.954-1.887-2.006-2.854-3.045a717.56 717.56 0 0 1-7.758-8.312l.078-.079zm13.512 19.205s-.886-.288-2.14-.898a23.767 23.767 0 0 1-2.076-1.163l-1.098-.768-1.024-.934-2.024-1.813c-.663-.556-1.153-1.225-1.629-1.725-.946-1.013-1.462-1.771-1.462-1.771l.085-.072s.613.696 1.663 1.575c.531.435 1.073 1.013 1.772 1.51.685.506 1.415 1.048 2.146 1.591.366.265.732.533 1.095.791.385.225.768.444 1.135.66.709.464 1.354.925 1.885 1.359 1.063.866 1.724 1.562 1.724 1.562l-.052.096zm.053 15.975s-.66.698-1.724 1.563c-.531.438-1.176.895-1.885 1.361-.368.213-.75.432-1.135.656l-1.095.791c-.73.543-1.46 1.086-2.146 1.592-.699.496-1.242 1.074-1.772 1.51-1.05.879-1.663 1.574-1.663 1.574l-.085-.071s.518-.759 1.462-1.771c.476-.498.966-1.171 1.629-1.727.646-.578 1.335-1.192 2.024-1.811.343-.313.687-.627 1.024-.938.374-.262.742-.516 1.098-.768.74-.455 1.447-.859 2.076-1.16 1.254-.61 2.14-.901 2.14-.901l.052.1zM22.575 44.508c.688-.017 1.509-.144 2.371-.069.866.049 1.789.098 2.713.15l1.387.062c.448.079.891.157 1.317.235a23.24 23.24 0 0 1 2.291.645c1.318.458 2.148.879 2.148.879l-.029.108s-.96.026-2.325-.114a23.53 23.53 0 0 1-2.295-.373c-.412-.111-.836-.222-1.268-.34-.441-.069-.887-.141-1.334-.212-.898-.134-1.799-.268-2.642-.392-.846-.144-1.637-.121-2.32-.186-1.368-.125-2.291-.065-2.291-.065l-.01-.111c0-.002.902-.172 2.287-.217zm-10.908 5.927v-.111s5.682-.248 11.362-.392c1.421-.049 2.841-.117 4.172-.134 1.333.013 2.575.052 3.64.134 2.13.157 3.552.392 3.552.392v.111s-1.421.232-3.552.392a55.962 55.962 0 0 1-3.64.134c-1.332-.02-2.751-.085-4.172-.134a756.71 756.71 0 0 1-11.362-.392zm8.621 5.631l.01-.11s.923.06 2.291-.062c.683-.069 1.474-.043 2.32-.188.843-.124 1.743-.258 2.642-.393.447-.071.894-.145 1.334-.213.431-.117.856-.231 1.268-.34.83-.173 1.611-.304 2.295-.371 1.364-.142 2.325-.115 2.325-.115l.029.107s-.83.422-2.148.876c-.659.231-1.442.447-2.291.646-.426.076-.869.154-1.317.236-.457.02-.923.039-1.387.063-.925.049-1.848.102-2.713.148-.861.075-1.683-.052-2.371-.067-1.385-.047-2.287-.217-2.287-.217zm2.638 21.474l-.078-.078s3.842-4.192 7.758-8.313c.969-1.039 1.926-2.09 2.855-3.045a54.782 54.782 0 0 1 2.669-2.479c1.617-1.396 2.787-2.234 2.787-2.234l.078.077s-.839 1.171-2.235 2.791c-.694.81-1.545 1.72-2.478 2.669-.954.928-2.004 1.887-3.045 2.855-4.119 3.915-8.311 7.757-8.311 7.757zm18.252-11.423a23.61 23.61 0 0 1-1.162 2.074l-.768 1.099c-.307.337-.622.68-.936 1.022L36.5 72.337c-.556.663-1.225 1.153-1.725 1.627-1.013.947-1.77 1.465-1.77 1.465l-.072-.086s.694-.611 1.575-1.662c.434-.533 1.011-1.076 1.508-1.774.506-.688 1.049-1.415 1.591-2.146.265-.366.531-.731.792-1.095.224-.387.443-.768.657-1.134a22.54 22.54 0 0 1 1.361-1.886c.866-1.064 1.562-1.726 1.562-1.726l.098.056c.001.003-.287.887-.899 2.141zm4.843 1.85a22.315 22.315 0 0 1-.371 2.294c-.109.411-.224.837-.338 1.269l-.216 1.336c-.132.898-.266 1.798-.392 2.644-.144.843-.118 1.638-.186 2.32-.123 1.364-.064 2.287-.064 2.287l-.111.01s-.168-.899-.217-2.284c-.017-.689-.144-1.51-.067-2.372l.15-2.712c.021-.467.041-.932.063-1.389l.233-1.316c.203-.847.417-1.634.647-2.291.454-1.318.877-2.148.877-2.148l.107.031c.001-.001.026.956-.115 2.321zm4.424 9.416c-.144 5.684-.391 11.364-.391 11.364h-.111s-.247-5.683-.391-11.364c-.05-1.421-.118-2.842-.135-4.172.013-1.333.052-2.574.135-3.641.157-2.131.391-3.551.391-3.551h.111s.234 1.42.391 3.551c.083 1.065.124 2.308.136 3.641-.018 1.33-.085 2.751-.136 4.172zm5.462.458c-.05 1.386-.22 2.284-.22 2.284l-.11-.01s.06-.922-.062-2.287c-.07-.684-.043-1.479-.189-2.32-.124-.846-.26-1.744-.389-2.644l-.217-1.337c-.113-.432-.229-.855-.34-1.268-.17-.83-.304-1.611-.369-2.294-.141-1.364-.113-2.323-.113-2.323l.106-.031s.422.83.876 2.148c.23.657.444 1.444.646 2.291.074.428.152.869.231 1.316.022.457.042.922.062 1.389.054.921.104 1.846.15 2.712.082.864-.045 1.683-.062 2.374zm-5.692-15.347c-6.788 0-12.29-5.502-12.29-12.292 0-6.786 5.502-12.292 12.29-12.292 6.787 0 12.289 5.505 12.289 12.292 0 6.79-5.502 12.292-12.289 12.292zm16.81 12.936s-.754-.517-1.771-1.464c-.496-.474-1.169-.964-1.722-1.627-.578-.647-1.195-1.337-1.813-2.026a200.04 200.04 0 0 0-.938-1.021l-.765-1.098a24.357 24.357 0 0 1-1.164-2.075c-.61-1.254-.897-2.14-.897-2.14l.099-.057s.695.66 1.563 1.727c.435.528.892 1.176 1.357 1.885.213.369.436.748.657 1.137.263.359.526.727.794 1.096.539.729 1.081 1.461 1.592 2.144.496.698 1.071 1.241 1.506 1.774.883 1.051 1.574 1.662 1.574 1.662l-.072.083zm10.058 2.136s-4.192-3.844-8.313-7.758c-1.041-.971-2.09-1.928-3.045-2.854a55.236 55.236 0 0 1-2.479-2.67 43.826 43.826 0 0 1-2.234-2.786l.078-.079s1.169.84 2.786 2.235c.813.691 1.72 1.545 2.67 2.477.931.954 1.89 2.006 2.854 3.045 3.914 4.12 7.761 8.313 7.761 8.313l-.078.077zm.376-21.28c-.689.017-1.51.144-2.372.067-.866-.049-1.787-.101-2.712-.148-.464-.023-.932-.043-1.389-.063-.448-.082-.889-.16-1.317-.235a23.161 23.161 0 0 1-2.29-.646c-1.32-.454-2.148-.876-2.148-.876l.031-.107s.961-.025 2.323.115c.683.067 1.464.198 2.297.371.408.107.836.223 1.269.34.438.068.886.142 1.332.213.898.135 1.802.269 2.645.393.846.145 1.637.117 2.318.188 1.367.119 2.291.062 2.291.062l.011.11c-.002-.004-.904.166-2.289.216zm10.906-5.851s-5.684.245-11.364.392c-1.418.049-2.839.114-4.172.134a56.154 56.154 0 0 1-3.64-.134c-2.131-.16-3.549-.392-3.549-.392v-.111s1.418-.235 3.549-.392a56.099 56.099 0 0 1 3.64-.134c1.333.017 2.754.085 4.172.134 5.683.144 11.364.392 11.364.392v.111z"></path></g><!----></svg>