<svg xmlns="http://www.w3.org/2000/svg" data-v-423bf9ae="" class="iconAboveSlogan" viewBox="0 0.11 790.17 216.4"><!----><!----><!----><g data-v-423bf9ae="" id="e551e3ea-b73f-4997-a27b-b77c2fe67123" fill="white" transform="matrix(4.769475386636096,0,0,4.769475386636096,-6.200332719522919,101.61685018778971)"><path d="M1.30 9.63C1.30 10.19 2.95 10.19 2.95 9.63L2.95 1.22C2.95 0.56 1.30 1.26 1.30 1.92ZM11.91 8.57C11.79 8.62 11.69 8.64 11.59 8.64C11.31 8.64 11.17 8.44 11.17 8.04L11.17 7.52L11.17 5.73C11.17 4.26 10.32 3.37 8.92 3.37C7.98 3.37 7.11 3.71 6.43 4.38L6.20 3.67C6.06 3.29 4.83 3.25 4.83 3.78L4.83 9.63C4.83 10.19 6.47 10.19 6.47 9.63L6.47 5.77C7.07 5.08 7.67 4.82 8.23 4.82C9.07 4.82 9.53 5.26 9.53 6.30L9.53 7.20L9.53 8.29C9.53 9.65 10.09 10.11 10.82 10.11C11.17 10.11 11.54 10.01 11.91 9.87C12.50 9.62 12.47 8.29 11.91 8.57ZM20.20 8.57C20.08 8.62 19.98 8.64 19.88 8.64C19.60 8.64 19.46 8.44 19.46 8.04L19.46 7.52L19.46 5.73C19.46 4.26 18.61 3.37 17.21 3.37C16.27 3.37 15.40 3.71 14.71 4.38L14.49 3.67C14.35 3.29 13.12 3.25 13.12 3.78L13.12 9.63C13.12 10.19 14.76 10.19 14.76 9.63L14.76 5.77C15.36 5.08 15.96 4.82 16.52 4.82C17.36 4.82 17.82 5.26 17.82 6.30L17.82 7.20L17.82 8.29C17.82 9.65 18.38 10.11 19.11 10.11C19.46 10.11 19.82 10.01 20.20 9.87C20.79 9.62 20.76 8.29 20.20 8.57ZM27.62 6.23C27.62 4.38 26.60 3.37 24.56 3.37C22.43 3.37 21.32 4.66 21.32 6.66C21.32 9.04 23.04 10.04 24.77 10.04C25.55 10.04 26.29 9.83 26.94 9.42C27.33 9.17 27.33 8.02 26.81 8.25C26.10 8.57 25.48 8.75 24.89 8.75C23.91 8.75 23.00 8.27 22.97 7.28C23.35 7.34 23.77 7.36 24.15 7.36C25.91 7.36 27.62 6.89 27.62 6.23ZM23.00 6.10C23.02 5.03 23.73 4.62 24.63 4.62C25.61 4.62 26.12 5.08 26.12 5.77C26.12 5.98 25.21 6.16 24.05 6.16C23.72 6.16 23.37 6.15 23.00 6.10ZM32.66 3.43C31.57 3.46 30.76 3.88 30.23 4.54L30.02 3.68C29.92 3.29 28.59 3.28 28.59 3.81L28.59 9.63C28.59 10.19 30.24 10.19 30.24 9.63L30.24 5.94C30.88 5.25 31.54 5.04 32.35 5.00C32.84 4.98 33.18 3.42 32.66 3.43ZM46.45 1.50C45.93 3.57 45.39 5.53 44.59 7.57C43.82 5.54 43.26 3.56 42.74 1.50C42.57 0.88 40.81 0.88 40.96 1.50C41.20 2.32 41.48 3.25 41.78 4.17C41.38 5.31 40.94 6.44 40.42 7.57C39.65 5.54 39.10 3.56 38.56 1.50C38.40 0.88 36.64 0.88 36.79 1.50C37.69 4.61 39.21 9.04 39.89 9.84C40.17 10.14 40.70 10.14 40.96 9.84C41.24 9.48 41.92 7.99 42.52 6.36C43.12 8.04 43.71 9.42 44.06 9.84C44.34 10.14 44.87 10.14 45.14 9.84C45.79 9.04 47.35 4.61 48.23 1.50C48.40 0.90 46.62 0.88 46.45 1.50ZM54.17 6.23C54.17 4.38 53.14 3.37 51.10 3.37C48.97 3.37 47.87 4.66 47.87 6.66C47.87 9.04 49.59 10.04 51.31 10.04C52.09 10.04 52.84 9.83 53.48 9.42C53.87 9.17 53.87 8.02 53.35 8.25C52.64 8.57 52.02 8.75 51.44 8.75C50.46 8.75 49.55 8.27 49.52 7.28C49.90 7.34 50.32 7.36 50.69 7.36C52.46 7.36 54.17 6.89 54.17 6.23ZM49.55 6.10C49.56 5.03 50.27 4.62 51.17 4.62C52.15 4.62 52.67 5.08 52.67 5.77C52.67 5.98 51.76 6.16 50.60 6.16C50.26 6.16 49.91 6.15 49.55 6.10ZM58.30 8.48C58.03 8.57 57.81 8.62 57.64 8.62C57.26 8.62 57.11 8.36 57.11 7.76L57.11 0.71C57.11 0.04 55.47 0.74 55.47 1.41L55.47 8.15C55.47 9.56 56.15 10.05 57.02 10.05C57.43 10.05 57.86 9.94 58.30 9.79C58.90 9.52 58.88 8.26 58.30 8.48ZM62.97 8.48C62.71 8.57 62.48 8.62 62.31 8.62C61.94 8.62 61.78 8.36 61.78 7.76L61.78 0.71C61.78 0.04 60.14 0.74 60.14 1.41L60.14 8.15C60.14 9.56 60.83 10.05 61.70 10.05C62.10 10.05 62.54 9.94 62.97 9.79C63.57 9.52 63.56 8.26 62.97 8.48ZM71.37 8.57C71.25 8.62 71.15 8.64 71.05 8.64C70.77 8.64 70.63 8.44 70.63 8.04L70.63 7.52L70.63 5.73C70.63 4.26 69.78 3.37 68.38 3.37C67.44 3.37 66.57 3.71 65.88 4.38L65.66 3.67C65.52 3.29 64.29 3.25 64.29 3.78L64.29 9.63C64.29 10.19 65.93 10.19 65.93 9.63L65.93 5.77C66.53 5.08 67.13 4.82 67.69 4.82C68.53 4.82 68.99 5.26 68.99 6.30L68.99 7.20L68.99 8.29C68.99 9.65 69.55 10.11 70.28 10.11C70.63 10.11 70.99 10.01 71.37 9.87C71.96 9.62 71.93 8.29 71.37 8.57ZM78.79 6.23C78.79 4.38 77.77 3.37 75.73 3.37C73.60 3.37 72.49 4.66 72.49 6.66C72.49 9.04 74.21 10.04 75.94 10.04C76.72 10.04 77.46 9.83 78.11 9.42C78.50 9.17 78.50 8.02 77.98 8.25C77.27 8.57 76.65 8.75 76.06 8.75C75.08 8.75 74.17 8.27 74.14 7.28C74.52 7.34 74.94 7.36 75.32 7.36C77.08 7.36 78.79 6.89 78.79 6.23ZM74.17 6.10C74.19 5.03 74.90 4.62 75.80 4.62C76.78 4.62 77.29 5.08 77.29 5.77C77.29 5.98 76.38 6.16 75.22 6.16C74.89 6.16 74.54 6.15 74.17 6.10ZM81.37 5.29C81.37 4.84 82.04 4.58 82.91 4.58C83.62 4.58 84.46 4.76 85.20 5.15C85.62 5.39 85.58 4.07 85.18 3.88C84.49 3.54 83.64 3.37 82.80 3.37C81.21 3.37 79.73 3.98 79.73 5.33C79.73 6.80 81.27 7 82.49 7.20C83.30 7.32 83.97 7.43 83.97 7.92C83.97 8.46 83.26 8.75 82.35 8.75C81.62 8.75 80.78 8.57 80.05 8.18C79.60 7.97 79.67 9.35 80.07 9.55C80.75 9.87 81.65 10.05 82.52 10.05C84.10 10.05 85.61 9.42 85.61 7.95C85.61 6.34 84.06 6.16 82.82 5.98C82.03 5.87 81.37 5.75 81.37 5.29ZM88.33 5.29C88.33 4.84 89.00 4.58 89.87 4.58C90.58 4.58 91.42 4.76 92.16 5.15C92.58 5.39 92.54 4.07 92.13 3.88C91.45 3.54 90.59 3.37 89.75 3.37C88.17 3.37 86.69 3.98 86.69 5.33C86.69 6.80 88.23 7 89.45 7.20C90.26 7.32 90.93 7.43 90.93 7.92C90.93 8.46 90.22 8.75 89.31 8.75C88.58 8.75 87.74 8.57 87.01 8.18C86.56 7.97 86.63 9.35 87.02 9.55C87.71 9.87 88.61 10.05 89.47 10.05C91.06 10.05 92.57 9.42 92.57 7.95C92.57 6.34 91.01 6.16 89.78 5.98C88.98 5.87 88.33 5.75 88.33 5.29ZM96.92 5.56C96.92 8.61 98.60 10.05 100.98 10.05C102.09 10.05 103.04 9.72 103.45 9.42C103.87 9.14 103.84 7.78 103.33 8.08C102.91 8.32 102.00 8.61 101.19 8.61C99.82 8.61 98.64 7.70 98.64 5.56C98.64 3.39 99.82 2.48 101.19 2.48C102.00 2.48 102.91 2.77 103.33 3.02C103.84 3.32 103.87 1.97 103.45 1.68C103.04 1.37 102.09 1.04 100.98 1.04C98.60 1.04 96.92 2.48 96.92 5.56ZM107.81 10.05C109.90 10.05 111.12 8.82 111.12 6.72C111.12 4.61 109.90 3.36 107.81 3.36C105.73 3.36 104.51 4.61 104.51 6.72C104.51 8.82 105.73 10.05 107.81 10.05ZM107.81 8.82C106.76 8.82 106.15 8.06 106.15 6.72C106.15 5.35 106.76 4.59 107.81 4.59C108.86 4.59 109.48 5.35 109.48 6.72C109.48 8.06 108.86 8.82 107.81 8.82ZM119.25 8.48C119.13 8.54 119.03 8.57 118.93 8.57C118.65 8.57 118.51 8.37 118.51 7.97L118.51 3.78C118.51 3.22 116.87 3.22 116.87 3.78L116.87 7.64C116.27 8.34 115.67 8.61 115.11 8.61C114.27 8.61 113.81 8.15 113.81 7.13L113.81 3.54C113.81 2.88 112.18 3.58 112.18 4.24L112.18 7.70C112.18 9.16 113.04 10.04 114.44 10.04C115.39 10.04 116.27 9.70 116.96 9.00C117.14 9.76 117.60 10.04 118.16 10.04C118.51 10.04 118.87 9.94 119.25 9.80C119.84 9.53 119.81 8.22 119.25 8.48ZM127.55 8.57C127.43 8.62 127.33 8.64 127.23 8.64C126.95 8.64 126.81 8.44 126.81 8.04L126.81 7.52L126.81 5.73C126.81 4.26 125.96 3.37 124.56 3.37C123.62 3.37 122.75 3.71 122.07 4.38L121.84 3.67C121.70 3.29 120.47 3.25 120.47 3.78L120.47 9.63C120.47 10.19 122.11 10.19 122.11 9.63L122.11 5.77C122.71 5.08 123.31 4.82 123.87 4.82C124.71 4.82 125.17 5.26 125.17 6.30L125.17 7.20L125.17 8.29C125.17 9.65 125.73 10.11 126.46 10.11C126.81 10.11 127.18 10.01 127.55 9.87C128.14 9.62 128.11 8.29 127.55 8.57ZM130.45 5.29C130.45 4.84 131.12 4.58 131.99 4.58C132.71 4.58 133.55 4.76 134.29 5.15C134.71 5.39 134.67 4.07 134.26 3.88C133.57 3.54 132.72 3.37 131.88 3.37C130.30 3.37 128.81 3.98 128.81 5.33C128.81 6.80 130.35 7 131.57 7.20C132.38 7.32 133.06 7.43 133.06 7.92C133.06 8.46 132.34 8.75 131.43 8.75C130.70 8.75 129.86 8.57 129.14 8.18C128.69 7.97 128.76 9.35 129.15 9.55C129.84 9.87 130.73 10.05 131.60 10.05C133.18 10.05 134.69 9.42 134.69 7.95C134.69 6.34 133.14 6.16 131.91 5.98C131.11 5.87 130.45 5.75 130.45 5.29ZM142.03 6.23C142.03 4.38 141.01 3.37 138.96 3.37C136.84 3.37 135.73 4.66 135.73 6.66C135.73 9.04 137.45 10.04 139.17 10.04C139.96 10.04 140.70 9.83 141.34 9.42C141.74 9.17 141.74 8.02 141.22 8.25C140.50 8.57 139.89 8.75 139.30 8.75C138.32 8.75 137.41 8.27 137.38 7.28C137.76 7.34 138.18 7.36 138.56 7.36C140.32 7.36 142.03 6.89 142.03 6.23ZM137.41 6.10C137.42 5.03 138.14 4.62 139.03 4.62C140.01 4.62 140.53 5.08 140.53 5.77C140.53 5.98 139.62 6.16 138.46 6.16C138.12 6.16 137.77 6.15 137.41 6.10ZM146.16 8.48C145.89 8.57 145.67 8.62 145.50 8.62C145.12 8.62 144.97 8.36 144.97 7.76L144.97 0.71C144.97 0.04 143.33 0.74 143.33 1.41L143.33 8.15C143.33 9.56 144.02 10.05 144.89 10.05C145.29 10.05 145.73 9.94 146.16 9.79C146.76 9.52 146.75 8.26 146.16 8.48ZM148.53 2.31C149.09 2.31 149.48 1.92 149.48 1.29C149.48 0.70 149.09 0.29 148.53 0.29C147.94 0.29 147.56 0.70 147.56 1.29C147.56 1.92 147.94 2.31 148.53 2.31ZM149.67 8.51C149.63 8.53 149.59 8.54 149.55 8.54C149.41 8.54 149.34 8.43 149.34 8.25L149.34 3.56C149.34 2.90 147.69 3.58 147.69 4.26L147.69 8.65C147.69 9.63 148.16 10.04 148.79 10.04C149.07 10.04 149.38 9.97 149.67 9.83C150.26 9.53 150.26 8.26 149.67 8.51ZM158.34 8.57C158.21 8.62 158.12 8.64 158.02 8.64C157.74 8.64 157.60 8.44 157.60 8.04L157.60 7.52L157.60 5.73C157.60 4.26 156.74 3.37 155.34 3.37C154.41 3.37 153.54 3.71 152.85 4.38L152.63 3.67C152.49 3.29 151.26 3.25 151.26 3.78L151.26 9.63C151.26 10.19 152.89 10.19 152.89 9.63L152.89 5.77C153.50 5.08 154.10 4.82 154.66 4.82C155.50 4.82 155.96 5.26 155.96 6.30L155.96 7.20L155.96 8.29C155.96 9.65 156.52 10.11 157.25 10.11C157.60 10.11 157.96 10.01 158.34 9.87C158.93 9.62 158.90 8.29 158.34 8.57ZM166.70 2.79C165.86 2.80 165.28 3.23 164.89 3.78C164.39 3.51 163.70 3.36 162.88 3.36C160.96 3.36 159.82 4.17 159.82 5.54C159.82 6.29 160.16 6.86 160.79 7.24C160.22 7.48 159.84 7.91 159.84 8.55C159.84 9.02 160.05 9.31 160.37 9.51C160.03 9.81 159.84 10.22 159.84 10.74C159.84 11.91 160.79 12.87 163.04 12.87C165.05 12.87 166.11 11.90 166.11 10.46C166.11 8.78 164.08 8.71 162.65 8.65C161.99 8.64 161.49 8.55 161.49 8.12C161.49 7.88 161.66 7.73 161.91 7.62C162.20 7.67 162.53 7.70 162.88 7.70C164.82 7.70 165.93 6.90 165.93 5.54C165.93 5.12 165.83 4.76 165.62 4.45C165.87 4.31 166.12 4.26 166.45 4.24C166.95 4.24 167.20 2.77 166.70 2.79ZM162.88 6.51C161.99 6.51 161.48 6.16 161.48 5.54C161.48 4.90 161.99 4.55 162.88 4.55C163.77 4.55 164.29 4.90 164.29 5.54C164.29 6.16 163.77 6.51 162.88 6.51ZM161.84 9.86C161.95 9.86 162.29 9.87 162.53 9.88C163.53 9.91 164.47 9.91 164.47 10.64C164.47 11.27 163.91 11.68 163.04 11.68C162.09 11.68 161.49 11.27 161.49 10.63C161.49 10.26 161.62 10.01 161.84 9.86Z"></path></g><!----><g data-v-423bf9ae="" id="2fa1e099-a838-4524-9f7e-22110ccc2197" transform="matrix(1.1568771863412453,0,0,1.1568771863412453,338.15580058451957,-12.742278172737464)" stroke="none" fill="white"><path d="M94.97 24.478c-.215-.903-1.525-1.378-2.983-1.082 0 0-18.15 3.838-18.583 4.174 0 0-17.558.026-17.756.065-3.733.677-8.791.514-11.795-.01 0 0-16.695-3.186-16.761-3.194-.489-.408-19.221-2.542-19.221-2.542-1.48-.15-2.737.452-2.862 1.372-.121.894.871 1.788 2.287 2.063 0 0 18.269 3.851 18.705 3.995l14.535 4.819c-2.58 7.137-4.785 15.331-4.427 22.006l-19.493 1.065c-2.614.143-3.924 2.267-3.68 4.554.608 5.693-2.213 22.795-2.213 22.795-.16 1.646.993 3.105 2.576 3.258 1.534.149 2.918-.655 3.139-2.243L19.212 66h19.402c.425 0 11.052.107 11.56.372L70.85 77.06c.222.116 17.119 11.3 17.119 11.3.874.573 1.942.692 2.85.354 2.115-.786 2.319-3.609.367-5.061 0 0-16.046-12.471-16.672-12.887 0 0-18.947-12.469-19.355-12.528-3.817-5.728-2.588-12.607 1.012-23.422.255.032 17.717-2.224 17.717-2.224.645-.085 19.009-5.836 19.009-5.836 1.383-.413 2.281-1.401 2.073-2.278z"></path><circle cx="47.901" cy="17.797" r="6.691"></circle></g><!----><g data-v-423bf9ae="" id="f393e0ee-0869-41e5-b374-a87b8e6cb749" fill="white" transform="matrix(1.7787565656900204,0,0,1.7787565656900204,99.05505988379821,195.48190126947398)"><path d="M0.81 6.23C0.81 8.36 1.71 10.05 4.42 10.05C7.14 10.05 8.04 8.36 8.04 6.23L8.04 1.44C8.04 0.88 6.40 0.88 6.40 1.44L6.40 6.17C6.40 7.50 5.78 8.55 4.42 8.55C3.07 8.55 2.45 7.50 2.45 6.17L2.45 1.20C2.45 0.55 0.81 1.25 0.81 1.90ZM15.61 1.92L15.61 6.59C14.46 4.68 13.10 2.95 11.24 1.19C10.99 0.94 9.69 0.90 9.69 1.46L9.69 9.63C9.69 10.19 11.33 10.19 11.33 9.63L11.33 3.50C13.05 5.32 14.18 6.86 15.62 9.80C15.79 10.14 17.26 10.19 17.26 9.63L17.26 1.22C17.26 0.56 15.61 1.26 15.61 1.92ZM24.46 8.53L20.52 8.53L20.52 1.20C20.52 0.55 18.90 1.25 18.90 1.90L18.90 9.35C18.90 9.65 18.98 9.95 19.21 9.95L24.46 9.95C25.00 9.95 25.00 8.53 24.46 8.53ZM31.56 8.51L27.59 8.51L27.59 6.22L30.58 6.22C31.12 6.22 31.12 4.77 30.58 4.77L27.61 4.77L27.61 2.58L30.97 2.58C31.63 2.58 32.34 1.13 31.68 1.13L26.28 1.13C26.08 1.13 25.97 1.41 25.97 1.72L25.97 9.34C25.97 9.65 26.07 9.95 26.28 9.95L31.56 9.95C32.12 9.95 32.12 8.51 31.56 8.51ZM40.82 9.63C39.77 6.45 37.80 2.03 36.92 1.09C36.82 1.01 36.64 1.01 36.54 1.09C35.66 2.03 33.68 6.45 32.63 9.63C32.44 10.21 34.33 10.21 34.50 9.63C34.71 8.93 34.92 8.27 35.13 7.62L38.33 7.62C38.54 8.27 38.75 8.93 38.96 9.63C39.13 10.19 41.03 10.21 40.82 9.63ZM35.60 6.23C35.92 5.33 36.29 4.44 36.74 3.50C37.17 4.44 37.53 5.33 37.86 6.23ZM43.16 3.56C43.16 2.79 43.72 2.37 44.63 2.37C45.35 2.37 46.28 2.62 47.35 3.16C47.89 3.44 47.81 1.93 47.32 1.69C46.47 1.25 45.53 1.02 44.65 1.02C42.97 1.02 41.54 1.88 41.54 3.68C41.54 5.52 43.02 5.82 44.32 6.10C45.37 6.31 46.31 6.51 46.31 7.43C46.31 8.20 45.68 8.64 44.69 8.64C43.96 8.64 43.02 8.40 42.00 7.88C41.43 7.59 41.51 9.14 42.03 9.38C42.90 9.81 43.86 10.05 44.76 10.05C46.49 10.05 47.96 9.20 47.96 7.41C47.96 5.39 46.44 5.08 45.11 4.83C44.07 4.63 43.16 4.47 43.16 3.56ZM57.02 8.48C56.52 8.67 56.29 8.48 56.29 7.97L56.29 7.43L56.29 1.44C56.29 0.88 54.63 0.88 54.63 1.44L54.63 4.73L50.82 4.73L50.82 1.20C50.82 0.55 49.18 1.25 49.18 1.90L49.18 9.63C49.18 10.19 50.82 10.19 50.82 9.63L50.82 6.17L54.63 6.17L54.63 7.18L54.63 8.20C54.63 10.19 55.85 10.25 57.02 9.79C57.62 9.52 57.58 8.22 57.02 8.48ZM67.69 1.50C66.96 3.07 66.28 4.21 65.35 5.53C64.43 4.21 63.74 3.07 63.03 1.50C62.75 0.92 61.01 0.92 61.29 1.50C62.24 3.49 63.18 5.17 64.53 6.86L64.53 9.63C64.53 10.19 66.16 10.19 66.16 9.63L66.16 6.87C67.52 5.18 68.46 3.50 69.41 1.50C69.68 0.92 67.94 0.92 67.69 1.50ZM73.85 10.05C76.45 10.05 77.99 8.37 77.99 5.54C77.99 2.70 76.45 1.02 73.85 1.02C71.25 1.02 69.71 2.70 69.71 5.54C69.71 8.37 71.25 10.05 73.85 10.05ZM73.85 8.61C72.31 8.61 71.43 7.48 71.43 5.54C71.43 3.60 72.31 2.46 73.85 2.46C75.38 2.46 76.27 3.60 76.27 5.54C76.27 7.48 75.38 8.61 73.85 8.61ZM79.27 6.23C79.27 8.36 80.16 10.05 82.88 10.05C85.60 10.05 86.49 8.36 86.49 6.23L86.49 1.44C86.49 0.88 84.85 0.88 84.85 1.44L84.85 6.17C84.85 7.50 84.24 8.55 82.88 8.55C81.52 8.55 80.91 7.50 80.91 6.17L80.91 1.20C80.91 0.55 79.27 1.25 79.27 1.90ZM93.95 8.44C93.81 8.50 93.69 8.53 93.56 8.53C93.07 8.53 92.74 8.05 92.40 7.56C92.23 7.31 92.06 7.04 91.87 6.78C93.74 6.68 94.70 5.75 94.70 3.86C94.70 2.04 93.31 1.04 90.94 1.04C89.07 1.04 88.14 1.43 88.14 1.78L88.14 9.63C88.14 10.19 89.78 10.19 89.78 9.63L89.78 6.76C90.44 7.13 90.87 7.83 91.28 8.47C91.78 9.31 92.27 10.14 93.16 10.14C93.39 10.14 93.66 10.07 93.97 9.95C94.50 9.76 94.50 8.23 93.95 8.44ZM91.10 2.45C92.37 2.45 93.03 2.98 93.03 3.99C93.03 4.94 92.58 5.60 91.21 5.60C90.82 5.60 90.34 5.54 89.78 5.43L89.78 2.65C90.19 2.52 90.65 2.45 91.10 2.45ZM99.75 9.63C99.75 10.19 101.40 10.19 101.40 9.63L101.40 1.22C101.40 0.56 99.75 1.26 99.75 1.92ZM109.44 1.92L109.44 6.59C108.29 4.68 106.93 2.95 105.07 1.19C104.82 0.94 103.52 0.90 103.52 1.46L103.52 9.63C103.52 10.19 105.15 10.19 105.15 9.63L105.15 3.50C106.88 5.32 108.01 6.86 109.45 9.80C109.62 10.14 111.09 10.19 111.09 9.63L111.09 1.22C111.09 0.56 109.44 1.26 109.44 1.92ZM118.65 1.92L118.65 6.59C117.50 4.68 116.14 2.95 114.28 1.19C114.03 0.94 112.73 0.90 112.73 1.46L112.73 9.63C112.73 10.19 114.37 10.19 114.37 9.63L114.37 3.50C116.09 5.32 117.22 6.86 118.66 9.80C118.83 10.14 120.30 10.19 120.30 9.63L120.30 1.22C120.30 0.56 118.65 1.26 118.65 1.92ZM127.53 8.51L123.56 8.51L123.56 6.22L126.55 6.22C127.09 6.22 127.09 4.77 126.55 4.77L123.58 4.77L123.58 2.58L126.94 2.58C127.60 2.58 128.31 1.13 127.65 1.13L122.25 1.13C122.05 1.13 121.94 1.41 121.94 1.72L121.94 9.34C121.94 9.65 122.04 9.95 122.25 9.95L127.53 9.95C128.09 9.95 128.09 8.51 127.53 8.51ZM134.93 8.44C134.79 8.50 134.67 8.53 134.54 8.53C134.05 8.53 133.71 8.05 133.38 7.56C133.21 7.31 133.04 7.04 132.85 6.78C134.72 6.68 135.67 5.75 135.67 3.86C135.67 2.04 134.29 1.04 131.92 1.04C130.05 1.04 129.12 1.43 129.12 1.78L129.12 9.63C129.12 10.19 130.76 10.19 130.76 9.63L130.76 6.76C131.42 7.13 131.85 7.83 132.26 8.47C132.76 9.31 133.25 10.14 134.13 10.14C134.37 10.14 134.64 10.07 134.95 9.95C135.48 9.76 135.48 8.23 134.93 8.44ZM132.08 2.45C133.35 2.45 134.01 2.98 134.01 3.99C134.01 4.94 133.56 5.60 132.19 5.60C131.80 5.60 131.32 5.54 130.76 5.43L130.76 2.65C131.17 2.52 131.63 2.45 132.08 2.45ZM141.47 3.56C141.47 2.79 142.03 2.37 142.94 2.37C143.65 2.37 144.59 2.62 145.66 3.16C146.20 3.44 146.12 1.93 145.63 1.69C144.77 1.25 143.84 1.02 142.95 1.02C141.27 1.02 139.85 1.88 139.85 3.68C139.85 5.52 141.33 5.82 142.63 6.10C143.68 6.31 144.62 6.51 144.62 7.43C144.62 8.20 143.99 8.64 143.00 8.64C142.27 8.64 141.33 8.40 140.31 7.88C139.73 7.59 139.82 9.14 140.34 9.38C141.20 9.81 142.17 10.05 143.07 10.05C144.80 10.05 146.27 9.20 146.27 7.41C146.27 5.39 144.75 5.08 143.42 4.83C142.38 4.63 141.47 4.47 141.47 3.56ZM154.06 1.13L147.07 1.13C146.41 1.13 147.11 2.58 147.77 2.58L149.74 2.58L149.74 9.63C149.74 10.19 151.51 10.19 151.51 9.63L151.51 2.58L154.06 2.58C154.60 2.58 154.60 1.13 154.06 1.13ZM161.08 8.44C160.94 8.50 160.82 8.53 160.69 8.53C160.20 8.53 159.87 8.05 159.53 7.56C159.36 7.31 159.19 7.04 159.00 6.78C160.87 6.68 161.83 5.75 161.83 3.86C161.83 2.04 160.44 1.04 158.07 1.04C156.20 1.04 155.27 1.43 155.27 1.78L155.27 9.63C155.27 10.19 156.91 10.19 156.91 9.63L156.91 6.76C157.57 7.13 158.00 7.83 158.41 8.47C158.91 9.31 159.40 10.14 160.29 10.14C160.52 10.14 160.79 10.07 161.10 9.95C161.63 9.76 161.63 8.23 161.08 8.44ZM158.23 2.45C159.50 2.45 160.16 2.98 160.16 3.99C160.16 4.94 159.71 5.60 158.34 5.60C157.95 5.60 157.47 5.54 156.91 5.43L156.91 2.65C157.32 2.52 157.78 2.45 158.23 2.45ZM168.63 8.51L164.67 8.51L164.67 6.22L167.65 6.22C168.20 6.22 168.20 4.77 167.65 4.77L164.68 4.77L164.68 2.58L168.04 2.58C168.70 2.58 169.41 1.13 168.76 1.13L163.35 1.13C163.16 1.13 163.04 1.41 163.04 1.72L163.04 9.34C163.04 9.65 163.14 9.95 163.35 9.95L168.63 9.95C169.19 9.95 169.19 8.51 168.63 8.51ZM176.15 1.92L176.15 6.59C175 4.68 173.64 2.95 171.78 1.19C171.53 0.94 170.23 0.90 170.23 1.46L170.23 9.63C170.23 10.19 171.86 10.19 171.86 9.63L171.86 3.50C173.59 5.32 174.72 6.86 176.16 9.80C176.33 10.14 177.80 10.19 177.80 9.63L177.80 1.22C177.80 0.56 176.15 1.26 176.15 1.92ZM185.61 5.08L183.58 5.08C183.01 5.08 182.29 6.51 182.88 6.51L184.73 6.51L184.73 8.54C184.37 8.61 183.96 8.65 183.60 8.65C182.01 8.65 180.73 7.74 180.73 5.56C180.73 3.36 181.96 2.44 183.57 2.44C184.37 2.44 185.37 2.70 185.81 3.00C186.30 3.30 186.28 2.03 185.92 1.68C185.51 1.32 184.48 1.04 183.32 1.04C180.84 1.04 179.09 2.48 179.09 5.56C179.09 8.64 180.88 10.05 183.39 10.05C184.63 10.05 185.68 9.77 186.09 9.42C186.26 9.27 186.35 8.81 186.35 8.50L186.35 5.39C186.35 5.19 185.98 5.08 185.61 5.08ZM194.26 1.13L187.28 1.13C186.62 1.13 187.32 2.58 187.98 2.58L189.95 2.58L189.95 9.63C189.95 10.19 191.72 10.19 191.72 9.63L191.72 2.58L194.26 2.58C194.81 2.58 194.81 1.13 194.26 1.13ZM203.32 8.48C202.82 8.67 202.59 8.48 202.59 7.97L202.59 7.43L202.59 1.44C202.59 0.88 200.93 0.88 200.93 1.44L200.93 4.73L197.12 4.73L197.12 1.20C197.12 0.55 195.48 1.25 195.48 1.90L195.48 9.63C195.48 10.19 197.12 10.19 197.12 9.63L197.12 6.17L200.93 6.17L200.93 7.18L200.93 8.20C200.93 10.19 202.15 10.25 203.32 9.79C203.92 9.52 203.88 8.22 203.32 8.48ZM205.48 11.62C206.15 10.63 206.53 9.56 206.53 8.46C206.53 7.85 205.03 7.85 205.03 8.46C205.03 9.45 204.93 10.21 204.54 11.21C204.36 11.68 205.20 12.07 205.48 11.62ZM215.59 10.05C218.19 10.05 219.73 8.37 219.73 5.54C219.73 2.70 218.19 1.02 215.59 1.02C212.98 1.02 211.44 2.70 211.44 5.54C211.44 8.37 212.98 10.05 215.59 10.05ZM215.59 8.61C214.05 8.61 213.16 7.48 213.16 5.54C213.16 3.60 214.05 2.46 215.59 2.46C217.11 2.46 218.01 3.60 218.01 5.54C218.01 7.48 217.11 8.61 215.59 8.61ZM226.93 1.92L226.93 6.59C225.78 4.68 224.42 2.95 222.56 1.19C222.31 0.94 221.00 0.90 221.00 1.46L221.00 9.63C221.00 10.19 222.64 10.19 222.64 9.63L222.64 3.50C224.36 5.32 225.50 6.86 226.94 9.80C227.11 10.14 228.58 10.19 228.58 9.63L228.58 1.22C228.58 0.56 226.93 1.26 226.93 1.92ZM235.80 8.51L231.84 8.51L231.84 6.22L234.82 6.22C235.37 6.22 235.37 4.77 234.82 4.77L231.85 4.77L231.85 2.58L235.21 2.58C235.87 2.58 236.59 1.13 235.93 1.13L230.52 1.13C230.33 1.13 230.22 1.41 230.22 1.72L230.22 9.34C230.22 9.65 230.31 9.95 230.52 9.95L235.80 9.95C236.36 9.95 236.36 8.51 235.80 8.51ZM241.98 3.56C241.98 2.79 242.54 2.37 243.45 2.37C244.16 2.37 245.10 2.62 246.16 3.16C246.71 3.44 246.62 1.93 246.13 1.69C245.28 1.25 244.34 1.02 243.46 1.02C241.78 1.02 240.35 1.88 240.35 3.68C240.35 5.52 241.84 5.82 243.14 6.10C244.19 6.31 245.13 6.51 245.13 7.43C245.13 8.20 244.50 8.64 243.50 8.64C242.77 8.64 241.84 8.40 240.81 7.88C240.24 7.59 240.32 9.14 240.84 9.38C241.71 9.81 242.68 10.05 243.57 10.05C245.31 10.05 246.78 9.20 246.78 7.41C246.78 5.39 245.25 5.08 243.92 4.83C242.89 4.63 241.98 4.47 241.98 3.56ZM254.56 1.13L247.58 1.13C246.92 1.13 247.62 2.58 248.28 2.58L250.25 2.58L250.25 9.63C250.25 10.19 252.01 10.19 252.01 9.63L252.01 2.58L254.56 2.58C255.11 2.58 255.11 1.13 254.56 1.13ZM261.37 8.51L257.40 8.51L257.40 6.22L260.39 6.22C260.93 6.22 260.93 4.77 260.39 4.77L257.42 4.77L257.42 2.58L260.78 2.58C261.44 2.58 262.15 1.13 261.49 1.13L256.09 1.13C255.89 1.13 255.78 1.41 255.78 1.72L255.78 9.34C255.78 9.65 255.88 9.95 256.09 9.95L261.37 9.95C261.93 9.95 261.93 8.51 261.37 8.51ZM265.86 1.04C263.91 1.04 262.96 1.43 262.96 1.78L262.96 9.63C262.96 10.19 264.60 10.18 264.60 9.63L264.60 7.14C265.26 7.29 265.82 7.36 266.32 7.36C268.63 7.36 269.51 5.88 269.51 4.27C269.51 2.18 268.17 1.04 265.86 1.04ZM266.03 6.05C265.64 6.05 265.16 5.98 264.60 5.84L264.60 2.63C265.01 2.51 265.45 2.45 265.89 2.45C267.18 2.45 267.85 3.08 267.85 4.26C267.85 5.28 267.37 6.05 266.03 6.05ZM281.69 9.63C280.64 6.45 278.67 2.03 277.79 1.09C277.69 1.01 277.51 1.01 277.41 1.09C276.53 2.03 274.55 6.45 273.50 9.63C273.31 10.21 275.20 10.21 275.37 9.63C275.58 8.93 275.79 8.27 276.00 7.62L279.20 7.62C279.41 8.27 279.62 8.93 279.83 9.63C280 10.19 281.90 10.21 281.69 9.63ZM276.47 6.23C276.79 5.33 277.16 4.44 277.61 3.50C278.04 4.44 278.40 5.33 278.73 6.23ZM287.84 1.13L280.85 1.13C280.20 1.13 280.90 2.58 281.55 2.58L283.53 2.58L283.53 9.63C283.53 10.19 285.29 10.19 285.29 9.63L285.29 2.58L287.84 2.58C288.39 2.58 288.39 1.13 287.84 1.13ZM300.41 9.63C299.36 6.45 297.39 2.03 296.51 1.09C296.41 1.01 296.23 1.01 296.13 1.09C295.25 2.03 293.27 6.45 292.22 9.63C292.03 10.21 293.92 10.21 294.08 9.63C294.29 8.93 294.50 8.27 294.71 7.62L297.92 7.62C298.13 8.27 298.34 8.93 298.55 9.63C298.72 10.19 300.62 10.21 300.41 9.63ZM295.19 6.23C295.51 5.33 295.88 4.44 296.32 3.50C296.76 4.44 297.12 5.33 297.44 6.23ZM311.54 1.13L304.56 1.13C303.90 1.13 304.60 2.58 305.26 2.58L307.23 2.58L307.23 9.63C307.23 10.19 308.99 10.19 308.99 9.63L308.99 2.58L311.54 2.58C312.09 2.58 312.09 1.13 311.54 1.13ZM313.25 9.63C313.25 10.19 314.90 10.19 314.90 9.63L314.90 1.22C314.90 0.56 313.25 1.26 313.25 1.92ZM326.54 8.57C326.41 8.62 326.30 8.64 326.21 8.64C325.93 8.64 325.81 8.44 325.81 8.05L325.81 7.50L325.81 1.44C325.81 0.88 324.31 0.94 324.18 1.26C323.48 2.86 322.60 4.44 321.41 5.96C320.19 4.44 319.35 2.86 318.64 1.26C318.51 0.94 317.02 0.88 317.02 1.44L317.02 9.63C317.02 10.19 318.65 10.19 318.65 9.63L318.65 4.54C319.54 6.12 320.54 7.57 321.08 7.94C321.27 8.05 321.55 8.05 321.73 7.94C322.28 7.57 323.29 6.10 324.17 4.52L324.17 7.27L324.17 8.29C324.17 9.66 324.74 10.11 325.49 10.11C325.81 10.11 326.19 10.01 326.54 9.87C327.14 9.60 327.11 8.29 326.54 8.57ZM333.56 8.51L329.60 8.51L329.60 6.22L332.58 6.22C333.13 6.22 333.13 4.77 332.58 4.77L329.62 4.77L329.62 2.58L332.98 2.58C333.63 2.58 334.35 1.13 333.69 1.13L328.29 1.13C328.09 1.13 327.98 1.41 327.98 1.72L327.98 9.34C327.98 9.65 328.08 9.95 328.29 9.95L333.56 9.95C334.12 9.95 334.12 8.51 333.56 8.51Z"></path></g></svg>